<svg width="350" height="112" viewBox="0 0 350 112" fill="none" xmlns="http://www.w3.org/2000/svg">
<g clip-path="url(#clip0_757_120)">
<path d="M88.7298 0.517578H20.7917C9.32101 0.517578 0.0410156 9.94451 0.0410156 21.5413V90.3734C0.0410156 101.995 9.32101 111.397 20.7917 111.397H88.7298C100.2 111.397 109.48 101.995 109.48 90.3734V21.5413C109.48 9.94451 100.2 0.517578 88.7298 0.517578ZM46.0469 80.1234C46.0469 83.7894 43.1177 86.7324 39.524 86.7324H20.4718C16.8779 86.7324 13.9487 83.7894 13.9487 80.1234V75.6842C13.9487 72.0431 16.8779 69.0754 20.4718 69.0754H39.524C43.1177 69.0754 46.0469 72.0431 46.0469 75.6842V80.1234ZM56.9515 57.7031H52.57C48.9761 57.7031 46.0469 54.7603 46.0469 51.0942V31.7913C46.0469 28.1501 48.9761 25.1823 52.57 25.1823H56.9515C60.5453 25.1823 63.4746 28.1501 63.4746 31.7913V51.0942C63.4746 54.7603 60.5453 57.7031 56.9515 57.7031ZM95.5728 80.1234C95.5728 83.7894 92.6682 86.7324 89.0498 86.7324H69.9977C66.4038 86.7324 63.4746 83.7894 63.4746 80.1234V75.6842C63.4746 72.0431 66.4038 69.0754 69.9977 69.0754H89.0498C92.6682 69.0754 95.5728 72.0431 95.5728 75.6842V80.1234Z" fill="#E3A325"/>
<path d="M137.828 92.3761V27.6934H146.475V92.3761H137.828ZM143.624 67.2116V59.5678H161.01C163.401 59.5678 165.532 59.0721 167.403 58.0762C169.274 57.0848 170.745 55.6861 171.819 53.8825C172.891 52.0811 173.428 49.9388 173.428 47.4514C173.428 44.9684 172.891 42.8239 171.819 41.0203C170.745 39.2189 169.274 37.8202 167.403 36.8266C165.532 35.8329 163.401 35.335 161.01 35.335H143.624V27.6934H161.469C165.393 27.6934 168.921 28.5011 172.049 30.1166C175.176 31.7322 177.644 34.016 179.455 36.966C181.263 39.9182 182.168 43.4126 182.168 47.4514C182.168 51.4282 181.263 54.9071 179.455 57.8903C177.644 60.8735 175.176 63.1728 172.049 64.7884C168.921 66.4039 165.393 67.2116 161.469 67.2116L143.624 67.2116Z" fill="#E3A325"/>
<path d="M187.504 92.3765V25.8281H195.782V92.3765H187.504Z" fill="#E3A325"/>
<path d="M220.987 93.1222C217.368 93.1222 214.133 92.3299 211.282 90.7454C208.43 89.1608 206.206 86.9102 204.612 83.9889C203.017 81.0677 202.22 77.6818 202.22 73.8289V48.1045H210.5V73.4571C210.5 75.8804 210.913 77.9761 211.741 79.7466C212.569 81.5192 213.779 82.8692 215.376 83.8008C216.97 84.7347 218.84 85.1995 220.987 85.1995C224.237 85.1995 226.782 84.1594 228.621 82.0769C230.463 79.9966 231.382 77.1241 231.382 73.4571V48.1045H239.661V73.8289C239.661 77.6818 238.863 81.0677 237.269 83.9889C235.674 86.9102 233.466 89.1608 230.646 90.7454C227.824 92.3299 224.604 93.1222 220.987 93.1222Z" fill="#E3A325"/>
<path d="M264.314 91.6306C260.328 91.6306 256.756 90.668 253.598 88.7404C250.439 86.8173 247.94 84.1594 246.101 80.7735C244.26 77.3875 243.34 73.5811 243.34 69.3542C243.34 65.1295 244.245 61.3562 246.053 58.03C247.862 54.7083 250.363 52.0659 253.552 50.1096C256.739 48.151 260.297 47.1729 264.222 47.1729C267.656 47.1729 270.707 47.8567 273.377 49.2221C276.044 50.5898 278.145 52.5019 279.678 54.9561C281.209 57.4104 282.07 60.2829 282.254 63.5759V75.3205C282.07 78.5516 281.196 81.3953 279.632 83.8474C278.068 86.3038 275.967 88.2137 273.331 89.5814C270.692 90.9468 267.687 91.6306 264.314 91.6306ZM264.314 111.856C259.775 111.856 255.789 111.017 252.355 109.339C248.921 107.662 246.13 105.301 243.985 102.255L249.413 96.756C251.191 99.0554 253.305 100.81 255.76 102.023C258.211 103.234 261.125 103.84 264.5 103.84C268.914 103.84 272.44 102.643 275.078 100.253C277.715 97.8603 279.034 94.6448 279.034 90.606V79.6072L280.506 69.6352L279.034 59.7562V48.1045H287.312V90.606C287.312 94.8307 286.347 98.542 284.416 101.744C282.483 104.942 279.783 107.43 276.321 109.2C272.855 110.97 268.853 111.856 264.314 111.856ZM265.878 83.7079C268.639 83.7079 271.031 83.1193 273.053 81.9375C275.078 80.758 276.657 79.096 277.791 76.9515C278.927 74.8071 279.495 72.3064 279.495 69.4493C279.495 66.5901 278.927 64.0893 277.791 61.9449C276.657 59.8027 275.063 58.123 273.007 56.9124C270.952 55.6997 268.578 55.0955 265.878 55.0955C263.119 55.0955 260.695 55.6997 258.611 56.9124C256.525 58.123 254.887 59.8027 253.69 61.9449C252.495 64.0893 251.896 66.5591 251.896 69.3542C251.896 72.1514 252.495 74.6367 253.69 76.8121C254.887 78.9875 256.542 80.6783 258.657 81.891C260.773 83.1016 263.18 83.7079 265.878 83.7079Z" fill="#E3A325"/>
<path d="M298.994 39.25C297.461 39.25 296.203 38.7366 295.222 37.7119C294.241 36.6873 293.75 35.3971 293.75 33.8435C293.75 32.3519 294.241 31.0949 295.222 30.0703C296.203 29.0434 297.461 28.5322 298.994 28.5322C300.526 28.5322 301.784 29.0434 302.767 30.0703C303.745 31.0949 304.239 32.3519 304.239 33.8435C304.239 35.3971 303.745 36.6873 302.767 37.7119C301.784 38.7366 300.526 39.25 298.994 39.25ZM294.764 92.3762V48.1044H303.134V92.3762H294.764Z" fill="#E3A325"/>
<path d="M310.771 92.3764V48.1045H319.049V92.3764H310.771ZM341.587 92.3764V66.5591C341.587 63.2041 340.56 60.44 338.507 58.2646C336.449 56.0892 333.769 55.0026 330.455 55.0026C328.249 55.0026 326.286 55.5005 324.569 56.492C322.852 57.4878 321.502 58.8555 320.521 60.5949C319.538 62.3344 319.049 64.3217 319.049 66.5591L315.646 64.6028C315.646 61.2456 316.382 58.2646 317.854 55.6532C319.324 53.044 321.38 50.9793 324.016 49.4567C326.653 47.9341 329.628 47.1729 332.941 47.1729C336.253 47.1729 339.179 48.0116 341.726 49.6891C344.269 51.3666 346.278 53.5575 347.751 56.2596C349.223 58.9639 349.959 61.8387 349.959 64.8816V92.3764H341.587Z" fill="#E3A325"/>
</g>
<defs>
<clipPath id="clip0_757_120">
<rect width="349.918" height="111.338" fill="white" transform="translate(0.0410156 0.517578)"/>
</clipPath>
</defs>
</svg>
